<svg width="27" height="17" viewBox="0 0 27 17" fill="none" xmlns="http://www.w3.org/2000/svg">
<g id="mode">
<path id="Line" d="M8.5 8.5H26.5" stroke="#C3C3C3" stroke-linecap="round"/>
<path id="rays" d="M9.05581 1.27181L10.0143 2.13867L11.2778 1.8672C11.8061 1.75371 12.3345 2.05878 12.5003 2.57301L12.897 3.80299L14.127 4.19965C14.6412 4.36549 14.9463 4.89386 14.8328 5.42215L14.5613 6.68567L15.4282 7.64418C15.7906 8.04493 15.7906 8.65505 15.4282 9.0558L14.5613 10.0143L14.8328 11.2778C14.9463 11.8061 14.6412 12.3345 14.127 12.5003L12.897 12.897L12.5003 14.127C12.3345 14.6412 11.8061 14.9463 11.2778 14.8328L10.0143 14.5613L9.05581 15.4282C8.65506 15.7906 8.04494 15.7906 7.64419 15.4282L6.68568 14.5613L5.42216 14.8328C4.89388 14.9463 4.36551 14.6412 4.19967 14.127L3.80301 12.897L2.57303 12.5003C2.05877 12.3345 1.75371 11.8061 1.86722 11.2778L2.13869 10.0143L1.27183 9.0558C0.90939 8.65505 0.90939 8.04493 1.27183 7.64418L2.13869 6.68567L1.86722 5.42215C1.75374 4.89386 2.0588 4.36549 2.57303 4.19965L3.80301 3.80299L4.19967 2.57301C4.36551 2.05875 4.89388 1.75369 5.42216 1.8672L6.68568 2.13867L7.64419 1.27181C8.04494 0.909397 8.65506 0.909397 9.05581 1.27181Z" fill="white" stroke="#333333"/>
<path id="sun" d="M8.5 13C6.0187 13 4 10.9813 4 8.5C4 6.0187 6.0187 4 8.5 4C10.9813 4 13 6.0187 13 8.5C13 10.9813 10.9813 13 8.5 13Z" fill="white" stroke="#333333"/>
<path id="moon" fill-rule="evenodd" clip-rule="evenodd" d="M7.6418 4.33917C9.88808 3.73728 12.2386 5.19768 12.8808 7.59414C13.5229 9.9906 12.2175 12.4306 9.97117 13.0325C8.94264 13.3081 7.89155 13.1518 6.99383 12.6697C8.67042 11.7381 9.55061 9.65217 9.00036 7.59861C8.65225 6.29944 7.80244 5.2755 6.73875 4.70641C7.01863 4.54859 7.32038 4.42529 7.6418 4.33917Z" stroke="#1B1B1B"/>
</g>
</svg>
