<svg width="642" height="321" viewBox="0 0 642 321" fill="none" xmlns="http://www.w3.org/2000/svg">
<g id="Dreams">
<g id="Dreams_2" filter="url(#filter0_d_33_4)">
<path d="M101.214 46.9824C110.022 46.9824 119.01 47.806 128.177 49.4531C137.343 51.0286 146.259 53.4635 154.925 56.7578C163.59 60.0521 171.754 64.2057 179.417 69.2188C187.08 74.1602 193.775 79.9609 199.505 86.6211C205.234 93.2812 209.746 100.801 213.04 109.18C216.406 117.559 218.089 126.833 218.089 137.002C218.089 147.171 216.298 156.589 212.718 165.254C209.137 173.919 204.124 181.403 197.678 187.705C191.233 194.007 183.535 198.949 174.583 202.529C165.631 206.11 155.784 207.9 145.042 207.9C139.957 207.9 134.693 207.507 129.251 206.719C123.808 206.003 118.365 204.857 112.923 203.281C107.48 201.706 102.109 199.772 96.8093 197.48C91.5815 195.117 86.5684 192.324 81.7703 189.102C76.1127 194.688 69.56 199.056 62.1121 202.207C54.7358 205.286 46.9298 206.826 38.6941 206.826C34.254 206.826 30.1003 206.325 26.2332 205.322C22.366 204.32 19.0001 202.887 16.1355 201.025C13.3425 199.163 11.1225 196.908 9.47534 194.258C7.89982 191.608 7.11206 188.672 7.11206 185.449C7.11206 182.656 7.7924 180.042 9.15308 177.607C10.5854 175.173 12.5548 173.024 15.0613 171.162C17.6394 169.3 20.683 167.832 24.1921 166.758C27.7729 165.684 31.6759 165.146 35.9011 165.146C48.3621 165.146 63.1147 169.73 80.1589 178.896C83.31 174.958 85.8881 170.518 87.8933 165.576C90.1134 160.062 91.8321 154.404 93.0496 148.604C94.3386 142.731 95.4486 136.895 96.3796 131.094C97.3822 125.293 98.3848 119.635 99.3875 114.121C100.462 108.607 101.894 103.415 103.684 98.5449C105.546 93.6751 107.945 89.235 110.882 85.2246C113.889 81.1426 117.792 77.6693 122.591 74.8047C123.307 74.4466 123.951 74.2676 124.524 74.2676C125.527 74.2676 126.458 74.6257 127.317 75.3418C128.248 76.0579 128.714 77.0605 128.714 78.3496C128.714 79.8535 128.033 80.9993 126.673 81.7871C122.877 84.0072 119.762 86.8001 117.327 90.166C114.964 93.4603 112.994 97.1842 111.419 101.338C109.843 105.492 108.59 109.967 107.659 114.766C106.728 119.564 105.833 124.577 104.973 129.805C104.257 134.102 103.469 138.613 102.61 143.34C101.751 147.995 100.677 152.65 99.3875 157.305C98.0984 161.888 96.4513 166.4 94.446 170.84C92.5125 175.208 90.1134 179.255 87.2488 182.979C87.392 183.05 87.4636 183.122 87.4636 183.193C87.5352 183.193 87.6427 183.229 87.7859 183.301C96.8809 188.743 106.334 192.861 116.145 195.654C125.956 198.447 135.553 199.844 144.934 199.844C155.104 199.844 164.199 198.161 172.219 194.795C180.312 191.429 187.151 186.917 192.737 181.26C198.323 175.531 202.584 168.87 205.52 161.279C208.456 153.688 209.925 145.667 209.925 137.217C209.925 128.623 208.492 120.638 205.628 113.262C202.763 105.814 198.824 99.0462 193.811 92.959C188.87 86.8717 182.962 81.4648 176.087 76.7383C169.283 72.0117 161.907 68.0729 153.958 64.9219C146.08 61.6992 137.773 59.2643 129.036 57.6172C120.371 55.8984 111.669 55.0391 102.932 55.0391C91.1876 55.0391 80.4454 56.0417 70.7058 58.0469C61.0378 59.9805 52.6947 62.8451 45.6765 66.6406C38.7299 70.4362 33.323 75.0911 29.4558 80.6055C25.5886 86.1198 23.655 92.3861 23.655 99.4043C23.655 103.415 24.2279 106.96 25.3738 110.039C26.5912 113.118 28.0951 115.804 29.8855 118.096C31.7475 120.316 33.7527 122.214 35.9011 123.789C38.0496 125.365 40.0548 126.654 41.9167 127.656C43.7787 128.587 45.3542 129.268 46.6433 129.697C48.004 130.127 48.7917 130.378 49.0066 130.449C49.9376 130.664 50.6537 131.165 51.155 131.953C51.7279 132.669 52.0144 133.493 52.0144 134.424C52.0144 135.641 51.5847 136.572 50.7253 137.217C49.866 137.861 48.935 138.184 47.9324 138.184C46.5001 138.184 44.7097 137.861 42.5613 137.217C40.4128 136.501 38.1212 135.462 35.6863 134.102C33.323 132.669 30.9239 130.915 28.489 128.838C26.1257 126.689 23.9773 124.183 22.0437 121.318C20.1101 118.454 18.5346 115.195 17.3171 111.543C16.1713 107.891 15.5984 103.844 15.5984 99.4043C15.5984 91.3118 17.6394 84.043 21.7214 77.5977C25.8751 71.0807 31.7117 65.5664 39.2312 61.0547C46.7507 56.543 55.7384 53.0697 66.1941 50.6348C76.7214 48.1999 88.3946 46.9824 101.214 46.9824ZM74.3582 185.02C66.9102 181.081 59.9994 178.109 53.6257 176.104C47.252 174.098 41.4154 173.096 36.116 173.096C33.1082 173.096 30.3152 173.454 27.7371 174.17C25.2306 174.814 23.0463 175.71 21.1843 176.855C19.3223 178.001 17.8542 179.326 16.78 180.83C15.7058 182.334 15.1687 183.91 15.1687 185.557C15.1687 187.132 15.6342 188.708 16.5652 190.283C17.5678 191.859 19.0359 193.255 20.9695 194.473C22.9747 195.69 25.4454 196.693 28.3816 197.48C31.3178 198.268 34.7553 198.662 38.6941 198.662C45.4259 198.662 51.8354 197.48 57.9226 195.117C64.0815 192.682 69.56 189.316 74.3582 185.02ZM245.266 160.85C244.98 162.783 244.622 164.609 244.192 166.328C243.762 167.975 243.333 169.443 242.903 170.732C242.545 171.95 242.223 172.952 241.936 173.74C241.65 174.528 241.471 174.958 241.399 175.029C240.683 176.676 239.43 177.5 237.639 177.5C236.637 177.5 235.706 177.142 234.846 176.426C233.987 175.638 233.557 174.671 233.557 173.525C233.557 173.096 233.629 172.773 233.772 172.559C233.915 172.344 234.13 171.914 234.417 171.27C234.703 170.625 235.061 169.551 235.491 168.047C235.921 166.543 236.458 164.215 237.102 161.064C235.885 161.064 234.632 161.029 233.343 160.957C232.053 160.885 230.872 160.635 229.798 160.205C228.652 159.775 227.721 159.095 227.005 158.164C226.288 157.233 225.93 155.944 225.93 154.297C225.93 153.079 226.288 151.432 227.005 149.355C227.649 147.279 228.544 145.238 229.69 143.232C230.836 141.227 232.125 139.508 233.557 138.076C234.99 136.572 236.422 135.82 237.854 135.82C239.501 135.82 240.826 136.429 241.829 137.646C242.903 138.864 243.727 140.368 244.3 142.158C244.872 143.877 245.266 145.703 245.481 147.637C245.768 149.57 245.911 151.253 245.911 152.686C247.128 152.686 248.31 152.686 249.456 152.686C250.673 152.614 251.819 152.578 252.893 152.578C256.975 152.578 260.091 153.473 262.239 155.264C264.387 157.054 265.462 159.99 265.462 164.072C265.462 165.719 265.354 167.438 265.139 169.229C264.925 171.019 264.674 172.881 264.387 174.814C264.101 176.676 263.85 178.538 263.635 180.4C263.421 182.262 263.313 184.089 263.313 185.879C263.313 188.457 263.671 190.605 264.387 192.324C265.104 193.971 265.999 195.296 267.073 196.299C268.147 197.301 269.293 198.018 270.51 198.447C271.728 198.805 272.838 198.984 273.841 198.984C276.92 198.984 279.82 197.982 282.542 195.977C285.263 193.971 287.77 191.572 290.061 188.779C292.353 185.915 294.394 182.907 296.184 179.756C298.046 176.605 299.586 173.848 300.803 171.484C301.162 170.84 301.663 170.339 302.307 169.98C302.952 169.622 303.632 169.443 304.348 169.443C305.637 169.443 306.64 169.873 307.356 170.732C308.072 171.52 308.43 172.415 308.43 173.418C308.43 174.134 308.287 174.779 308.001 175.352C306.354 178.288 304.42 181.618 302.2 185.342C300.052 188.994 297.581 192.432 294.788 195.654C291.995 198.877 288.844 201.598 285.335 203.818C281.897 206.038 278.102 207.148 273.948 207.148C271.37 207.148 268.935 206.647 266.643 205.645C264.352 204.714 262.346 203.353 260.628 201.562C258.981 199.701 257.656 197.445 256.653 194.795C255.65 192.074 255.149 189.03 255.149 185.664C255.149 182.083 255.507 178.538 256.223 175.029C256.94 171.449 257.298 168.047 257.298 164.824C257.298 163.464 256.975 162.461 256.331 161.816C255.758 161.1 254.433 160.742 252.356 160.742C251.354 160.742 250.244 160.742 249.026 160.742C247.88 160.742 246.627 160.778 245.266 160.85ZM238.069 152.9C238.069 152.399 238.033 151.755 237.962 150.967C237.962 150.107 237.89 149.284 237.747 148.496C237.675 147.708 237.532 147.028 237.317 146.455C237.174 145.882 236.995 145.596 236.78 145.596C236.565 145.596 236.279 145.882 235.921 146.455C235.634 146.956 235.312 147.601 234.954 148.389C234.596 149.105 234.274 149.893 233.987 150.752C233.701 151.611 233.486 152.327 233.343 152.9H238.069ZM313.694 193.184C315.198 195.26 317.132 196.943 319.495 198.232C321.858 199.45 324.759 200.059 328.196 200.059C331.705 200.059 334.892 199.235 337.757 197.588C340.621 195.869 343.235 193.649 345.598 190.928C347.962 188.206 350.074 185.163 351.936 181.797C353.798 178.431 355.481 175.065 356.985 171.699C357.343 170.911 357.844 170.339 358.489 169.98C359.134 169.551 359.85 169.336 360.637 169.336C361.855 169.336 362.822 169.766 363.538 170.625C364.326 171.484 364.719 172.415 364.719 173.418C364.719 173.776 364.684 174.098 364.612 174.385C364.54 174.6 364.433 174.85 364.29 175.137C359.348 186.022 353.941 194.222 348.069 199.736C342.268 205.251 335.68 208.079 328.303 208.223C323.577 208.223 319.495 207.292 316.057 205.43C312.62 203.639 309.791 201.312 307.571 198.447C305.351 195.511 303.704 192.217 302.63 188.564C301.555 184.912 301.018 181.26 301.018 177.607C301.018 173.955 301.448 170.589 302.307 167.51C303.238 164.43 304.527 161.745 306.175 159.453C307.893 157.161 309.899 155.371 312.19 154.082C314.553 152.793 317.132 152.148 319.925 152.148C321.572 152.148 323.183 152.507 324.759 153.223C326.406 153.867 327.874 154.834 329.163 156.123C330.452 157.34 331.49 158.844 332.278 160.635C333.066 162.425 333.46 164.466 333.46 166.758C333.46 169.694 332.958 172.451 331.956 175.029C330.953 177.607 329.557 180.007 327.766 182.227C326.048 184.447 323.971 186.488 321.536 188.35C319.101 190.212 316.487 191.823 313.694 193.184ZM310.471 186.201C312.691 185.27 314.697 184.089 316.487 182.656C318.349 181.224 319.925 179.648 321.214 177.93C322.503 176.211 323.505 174.421 324.221 172.559C324.938 170.625 325.296 168.691 325.296 166.758C325.296 164.609 324.759 162.998 323.684 161.924C322.61 160.778 321.357 160.205 319.925 160.205C317.991 160.205 316.344 160.742 314.983 161.816C313.622 162.891 312.512 164.287 311.653 166.006C310.794 167.725 310.149 169.658 309.719 171.807C309.361 173.883 309.182 175.96 309.182 178.037C309.182 179.326 309.29 180.687 309.505 182.119C309.791 183.551 310.113 184.912 310.471 186.201ZM440.13 175.029C439.843 175.602 439.234 176.82 438.303 178.682C437.444 180.472 436.298 182.549 434.866 184.912C433.505 187.275 431.894 189.746 430.032 192.324C428.17 194.902 426.093 197.266 423.802 199.414C421.51 201.562 419.039 203.353 416.389 204.785C413.74 206.146 410.947 206.826 408.01 206.826C403.857 206.826 400.348 205.501 397.483 202.852C394.69 200.202 392.649 196.872 391.36 192.861C388.925 196.943 386.025 200.202 382.659 202.637C379.293 205 375.927 206.182 372.561 206.182C369.912 206.182 367.512 205.716 365.364 204.785C363.216 203.783 361.389 202.422 359.885 200.703C358.382 198.913 357.2 196.836 356.341 194.473C355.553 192.109 355.159 189.531 355.159 186.738C355.159 181.152 356.09 176.247 357.952 172.021C359.885 167.725 362.32 164.144 365.257 161.279C368.193 158.415 371.415 156.266 374.925 154.834C378.505 153.402 381.943 152.686 385.237 152.686C387.457 152.686 389.498 153.008 391.36 153.652C393.222 154.225 394.798 154.87 396.087 155.586C397.447 156.302 398.486 156.982 399.202 157.627C399.918 158.2 400.312 158.522 400.384 158.594C401.171 159.525 401.565 160.492 401.565 161.494C401.565 162.568 401.171 163.535 400.384 164.395C399.596 165.182 398.665 165.576 397.591 165.576C396.445 165.576 395.478 165.182 394.69 164.395C394.547 164.251 394.225 164.001 393.723 163.643C393.222 163.213 392.542 162.783 391.682 162.354C390.823 161.924 389.785 161.566 388.567 161.279C387.421 160.921 386.096 160.742 384.593 160.742C382.372 160.742 380.009 161.243 377.503 162.246C374.996 163.249 372.705 164.824 370.628 166.973C368.551 169.049 366.796 171.699 365.364 174.922C364.003 178.073 363.323 181.833 363.323 186.201C363.323 187.562 363.466 188.958 363.753 190.391C364.039 191.751 364.54 193.005 365.257 194.15C365.973 195.296 366.94 196.227 368.157 196.943C369.374 197.66 370.878 198.018 372.669 198.018C373.958 198.018 375.426 197.588 377.073 196.729C378.792 195.869 380.403 194.544 381.907 192.754C383.483 190.964 384.879 188.708 386.096 185.986C387.385 183.265 388.281 180.042 388.782 176.318C388.925 175.316 389.391 174.492 390.178 173.848C390.966 173.132 391.897 172.773 392.971 172.773C393.974 172.773 394.833 173.167 395.55 173.955C396.337 174.743 396.767 175.638 396.839 176.641C396.91 178.001 397.053 179.935 397.268 182.441C397.483 184.876 397.949 187.311 398.665 189.746C399.453 192.181 400.598 194.294 402.102 196.084C403.606 197.874 405.683 198.77 408.333 198.77C410.052 198.77 411.734 198.304 413.382 197.373C415.1 196.442 416.747 195.225 418.323 193.721C419.97 192.145 421.51 190.391 422.942 188.457C424.446 186.452 425.807 184.447 427.024 182.441C428.242 180.436 429.316 178.503 430.247 176.641C431.178 174.779 431.966 173.167 432.61 171.807C432.968 171.019 433.469 170.41 434.114 169.98C434.83 169.551 435.582 169.336 436.37 169.336C437.587 169.336 438.554 169.801 439.27 170.732C440.058 171.592 440.452 172.523 440.452 173.525C440.452 174.027 440.344 174.528 440.13 175.029ZM457.532 195.439C458.606 193.291 459.967 190.641 461.614 187.49C463.333 184.268 465.087 181.045 466.878 177.822C468.74 174.6 470.53 171.556 472.249 168.691C474.039 165.827 475.543 163.643 476.76 162.139C478.837 159.632 480.986 157.842 483.206 156.768C485.426 155.693 487.467 155.156 489.329 155.156C491.191 155.156 492.766 155.55 494.055 156.338C495.416 157.126 496.526 158.2 497.385 159.561C498.245 160.85 498.889 162.389 499.319 164.18C499.749 165.898 499.964 167.76 499.964 169.766C499.964 170.911 499.892 172.415 499.749 174.277C499.677 176.139 499.57 178.145 499.427 180.293C499.355 182.441 499.247 184.661 499.104 186.953C499.033 189.245 498.961 191.393 498.889 193.398C499.964 191.25 501.181 188.887 502.542 186.309C503.902 183.659 505.263 181.045 506.624 178.467C508.056 175.889 509.417 173.49 510.706 171.27C511.995 168.978 513.177 167.116 514.251 165.684C517.33 161.458 520.195 158.63 522.844 157.197C525.566 155.765 527.965 155.049 530.042 155.049C532.477 155.049 534.482 155.514 536.057 156.445C537.633 157.305 538.85 158.451 539.71 159.883C540.641 161.243 541.285 162.783 541.643 164.502C542.001 166.221 542.18 167.868 542.18 169.443C542.18 171.878 542.001 174.421 541.643 177.07C541.285 179.72 541.106 182.871 541.106 186.523C541.106 188.027 541.178 189.531 541.321 191.035C541.464 192.539 541.751 193.864 542.18 195.01C542.682 196.156 543.434 197.087 544.436 197.803C545.439 198.519 546.8 198.877 548.518 198.877C550.38 198.877 552.206 198.411 553.997 197.48C555.787 196.478 557.506 195.189 559.153 193.613C560.8 192.038 562.34 190.247 563.772 188.242C565.276 186.237 566.637 184.232 567.854 182.227C569.072 180.221 570.146 178.324 571.077 176.533C572.008 174.671 572.76 173.096 573.333 171.807C573.691 171.019 574.192 170.41 574.837 169.98C575.481 169.551 576.197 169.336 576.985 169.336C578.203 169.336 579.169 169.801 579.885 170.732C580.673 171.592 581.067 172.523 581.067 173.525C581.067 174.027 580.96 174.528 580.745 175.029C580.458 175.602 579.885 176.82 579.026 178.682C578.167 180.472 577.021 182.549 575.589 184.912C574.156 187.204 572.473 189.639 570.54 192.217C568.678 194.795 566.601 197.194 564.309 199.414C562.018 201.562 559.547 203.353 556.897 204.785C554.247 206.146 551.455 206.826 548.518 206.826C545.367 206.826 542.789 206.253 540.784 205.107C538.85 204.033 537.275 202.565 536.057 200.703C534.912 198.841 534.124 196.693 533.694 194.258C533.264 191.823 533.05 189.281 533.05 186.631C533.05 183.122 533.229 179.899 533.587 176.963C533.945 173.955 534.124 171.628 534.124 169.98C534.124 168.19 533.945 166.829 533.587 165.898C533.3 164.967 532.906 164.323 532.405 163.965C531.975 163.535 531.546 163.32 531.116 163.32C530.686 163.249 530.364 163.213 530.149 163.213C528.43 163.213 526.604 164.18 524.671 166.113C522.809 167.975 520.875 170.482 518.87 173.633C516.865 176.784 514.788 180.365 512.639 184.375C510.563 188.385 508.45 192.467 506.302 196.621C505.084 198.913 504.046 200.811 503.186 202.314C502.399 203.818 501.611 205 500.823 205.859C500.107 206.719 499.391 207.327 498.675 207.686C497.958 208.044 497.171 208.223 496.311 208.223C494.449 208.223 493.017 207.578 492.014 206.289C491.083 205 490.618 203.317 490.618 201.24C490.618 200.166 490.654 198.734 490.725 196.943C490.797 195.153 490.869 193.184 490.94 191.035C491.012 188.887 491.119 186.667 491.262 184.375C491.406 182.083 491.513 179.899 491.585 177.822C491.656 175.674 491.728 173.776 491.8 172.129C491.871 170.482 491.907 169.229 491.907 168.369C491.907 166.507 491.585 165.182 490.94 164.395C490.296 163.535 489.544 163.105 488.684 163.105C487.897 163.105 487.001 163.392 485.999 163.965C485.068 164.538 483.958 165.648 482.669 167.295C481.666 168.584 480.377 170.482 478.802 172.988C477.298 175.423 475.686 178.145 473.968 181.152C472.249 184.16 470.53 187.24 468.811 190.391C467.164 193.542 465.732 196.37 464.514 198.877C463.01 201.885 461.507 203.926 460.003 205C458.499 206.146 457.031 206.719 455.598 206.719C453.522 206.719 451.982 206.11 450.979 204.893C449.977 203.604 449.475 201.921 449.475 199.844C449.475 199.629 449.511 198.34 449.583 195.977C449.726 193.613 449.869 190.749 450.012 187.383C450.156 183.945 450.299 180.293 450.442 176.426C450.657 172.559 450.836 168.942 450.979 165.576C451.051 163.786 450.979 162.139 450.764 160.635C450.55 159.131 450.263 158.236 449.905 157.949C449.332 158.092 448.186 159.417 446.468 161.924C444.82 164.43 442.708 168.799 440.13 175.029C439.772 175.817 439.234 176.426 438.518 176.855C437.802 177.285 437.05 177.5 436.262 177.5C435.045 177.5 434.078 177.106 433.362 176.318C432.646 175.459 432.288 174.492 432.288 173.418C432.288 172.917 432.395 172.38 432.61 171.807C435.833 164.144 438.912 158.522 441.848 154.941C444.785 151.289 447.649 149.463 450.442 149.463C452.089 149.463 453.45 149.857 454.524 150.645C455.67 151.361 456.565 152.327 457.21 153.545C457.854 154.691 458.32 156.016 458.606 157.52C458.893 159.023 459.036 160.492 459.036 161.924C459.036 168.298 458.857 174.134 458.499 179.434C458.212 184.733 457.89 190.068 457.532 195.439ZM585.364 165.254C584.934 166.4 584.397 167.689 583.753 169.121C583.18 170.553 582.499 172.057 581.712 173.633C581.067 174.85 580.387 175.817 579.671 176.533C579.026 177.178 578.167 177.5 577.093 177.5C575.875 177.5 574.908 177.142 574.192 176.426C573.476 175.638 573.118 174.743 573.118 173.74C573.118 173.382 573.154 173.096 573.225 172.881C573.297 172.594 573.476 172.165 573.762 171.592C575.624 168.011 576.985 164.896 577.844 162.246C578.775 159.525 579.527 156.696 580.1 153.76C579.599 152.113 579.241 150.716 579.026 149.57C578.811 148.424 578.704 147.243 578.704 146.025C578.704 143.662 579.205 141.764 580.208 140.332C581.21 138.828 582.607 138.076 584.397 138.076C586.044 138.076 587.333 138.792 588.264 140.225C589.267 141.657 589.768 143.411 589.768 145.488C589.768 146.634 589.661 147.78 589.446 148.926C589.231 150.072 588.945 151.504 588.587 153.223C590.234 157.305 591.881 160.921 593.528 164.072C595.175 167.223 596.643 170.124 597.932 172.773C599.221 175.352 600.26 177.786 601.048 180.078C601.907 182.37 602.337 184.661 602.337 186.953C602.337 189.961 601.728 192.826 600.51 195.547C599.293 198.268 597.288 200.56 594.495 202.422C594.853 202.493 595.211 202.529 595.569 202.529C595.927 202.529 596.285 202.529 596.643 202.529C600.725 202.529 604.485 201.598 607.923 199.736C611.36 197.874 614.44 195.475 617.161 192.539C619.954 189.531 622.425 186.237 624.573 182.656C626.721 179.004 628.583 175.387 630.159 171.807C630.875 170.16 631.878 169.336 633.167 169.336C634.384 169.336 635.315 169.766 635.96 170.625C636.676 171.484 637.034 172.415 637.034 173.418C637.034 173.991 636.927 174.528 636.712 175.029C635.924 176.963 634.885 179.183 633.596 181.689C632.379 184.124 630.875 186.667 629.085 189.316C627.366 191.895 625.361 194.437 623.069 196.943C620.777 199.45 618.199 201.706 615.335 203.711C612.542 205.645 609.462 207.184 606.096 208.33C602.731 209.548 599.042 210.156 595.032 210.156C590.234 210.156 585.758 209.297 581.604 207.578C577.522 205.931 574.192 203.174 571.614 199.307C571.184 198.662 570.969 197.982 570.969 197.266C570.969 196.191 571.363 195.26 572.151 194.473C573.01 193.613 573.977 193.184 575.052 193.184C576.197 193.184 577.164 193.577 577.952 194.365C578.024 194.508 578.274 194.759 578.704 195.117C579.134 195.404 579.635 195.762 580.208 196.191C580.852 196.549 581.568 196.872 582.356 197.158C583.216 197.445 584.075 197.588 584.934 197.588C586.653 197.588 588.085 197.23 589.231 196.514C590.449 195.798 591.415 194.938 592.132 193.936C592.848 192.861 593.349 191.751 593.635 190.605C593.994 189.388 594.173 188.35 594.173 187.49C594.173 185.7 593.886 183.91 593.313 182.119C592.74 180.329 591.988 178.538 591.057 176.748C590.198 174.958 589.231 173.132 588.157 171.27C587.154 169.336 586.223 167.331 585.364 165.254Z" fill="white"/>
</g>
<g id="Show them their" filter="url(#filter1_d_33_4)">
<path d="M251.151 118.305C251.151 121.097 250.142 123.298 248.125 124.906C246.123 126.513 243.33 127.317 239.747 127.317C236.447 127.317 233.527 126.697 230.989 125.456V119.363C233.076 120.293 234.839 120.949 236.278 121.33C237.731 121.711 239.056 121.901 240.255 121.901C241.694 121.901 242.794 121.626 243.556 121.076C244.331 120.526 244.719 119.708 244.719 118.622C244.719 118.016 244.55 117.48 244.211 117.014C243.873 116.535 243.372 116.076 242.709 115.639C242.06 115.202 240.728 114.504 238.711 113.545C236.821 112.656 235.403 111.803 234.458 110.985C233.513 110.167 232.759 109.215 232.195 108.129C231.63 107.043 231.348 105.773 231.348 104.32C231.348 101.584 232.272 99.4333 234.12 97.8678C235.982 96.3022 238.549 95.5194 241.821 95.5194C243.429 95.5194 244.959 95.7098 246.412 96.0906C247.878 96.4715 249.409 97.0074 251.003 97.6985L248.887 102.797C247.237 102.12 245.869 101.648 244.783 101.38C243.711 101.112 242.653 100.978 241.609 100.978C240.368 100.978 239.416 101.267 238.753 101.845C238.09 102.423 237.759 103.178 237.759 104.109C237.759 104.687 237.893 105.195 238.161 105.632C238.429 106.055 238.852 106.471 239.43 106.88C240.022 107.275 241.412 107.995 243.598 109.038C246.489 110.421 248.471 111.81 249.543 113.206C250.615 114.588 251.151 116.288 251.151 118.305ZM278.083 126.894H271.63V113.079C271.63 109.666 270.361 107.959 267.822 107.959C266.016 107.959 264.712 108.573 263.908 109.8C263.104 111.027 262.702 113.016 262.702 115.766V126.894H256.249V93.975H262.702V100.682C262.702 101.203 262.653 102.43 262.554 104.363L262.406 106.267H262.744C264.183 103.954 266.468 102.797 269.599 102.797C272.377 102.797 274.486 103.545 275.925 105.04C277.363 106.535 278.083 108.679 278.083 111.471V126.894ZM289.867 115.026C289.867 117.367 290.248 119.137 291.009 120.336C291.785 121.535 293.04 122.134 294.775 122.134C296.496 122.134 297.73 121.542 298.477 120.357C299.239 119.158 299.62 117.381 299.62 115.026C299.62 112.684 299.239 110.928 298.477 109.758C297.716 108.587 296.467 108.002 294.733 108.002C293.012 108.002 291.771 108.587 291.009 109.758C290.248 110.914 289.867 112.67 289.867 115.026ZM306.221 115.026C306.221 118.876 305.205 121.887 303.174 124.059C301.143 126.231 298.315 127.317 294.69 127.317C292.42 127.317 290.417 126.824 288.682 125.836C286.947 124.835 285.614 123.403 284.683 121.542C283.753 119.68 283.287 117.508 283.287 115.026C283.287 111.161 284.296 108.157 286.312 106.013C288.329 103.869 291.164 102.797 294.817 102.797C297.088 102.797 299.091 103.291 300.826 104.278C302.56 105.265 303.893 106.683 304.824 108.531C305.755 110.378 306.221 112.543 306.221 115.026ZM330.995 126.894L329.175 118.622L326.721 108.171H326.573L322.257 126.894H315.318L308.59 103.241H315.022L317.751 113.714C318.188 115.59 318.632 118.178 319.084 121.478H319.211C319.267 120.406 319.514 118.707 319.951 116.38L320.289 114.581L323.209 103.241H330.318L333.089 114.581C333.145 114.892 333.23 115.35 333.343 115.956C333.47 116.563 333.59 117.212 333.703 117.903C333.815 118.58 333.914 119.25 333.999 119.913C334.098 120.561 334.154 121.083 334.168 121.478H334.295C334.422 120.463 334.648 119.073 334.972 117.31C335.296 115.533 335.529 114.334 335.67 113.714L338.505 103.241H344.831L338.018 126.894H330.995ZM369.88 122.176C371.008 122.176 372.362 121.93 373.942 121.436V126.238C372.334 126.958 370.359 127.317 368.018 127.317C365.437 127.317 363.554 126.669 362.369 125.371C361.199 124.059 360.613 122.099 360.613 119.49V108.086H357.525V105.357L361.079 103.199L362.941 98.2063H367.066V103.241H373.688V108.086H367.066V119.49C367.066 120.406 367.32 121.083 367.828 121.521C368.35 121.958 369.034 122.176 369.88 122.176ZM400.578 126.894H394.125V113.079C394.125 109.666 392.856 107.959 390.317 107.959C388.512 107.959 387.207 108.573 386.403 109.8C385.599 111.027 385.197 113.016 385.197 115.766V126.894H378.744V93.975H385.197V100.682C385.197 101.203 385.148 102.43 385.049 104.363L384.901 106.267H385.239C386.678 103.954 388.963 102.797 392.094 102.797C394.873 102.797 396.981 103.545 398.42 105.04C399.858 106.535 400.578 108.679 400.578 111.471V126.894ZM417.016 107.388C415.648 107.388 414.576 107.825 413.8 108.7C413.025 109.56 412.58 110.787 412.468 112.381H421.522C421.494 110.787 421.078 109.56 420.274 108.7C419.47 107.825 418.384 107.388 417.016 107.388ZM417.926 127.317C414.118 127.317 411.142 126.267 408.998 124.165C406.854 122.064 405.782 119.088 405.782 115.237C405.782 111.274 406.769 108.213 408.744 106.055C410.733 103.883 413.476 102.797 416.974 102.797C420.317 102.797 422.919 103.749 424.781 105.653C426.642 107.557 427.573 110.188 427.573 113.545V116.676H412.319C412.39 118.509 412.933 119.941 413.948 120.97C414.964 122 416.388 122.515 418.222 122.515C419.647 122.515 420.994 122.367 422.263 122.071C423.532 121.774 424.858 121.302 426.24 120.653V125.646C425.112 126.21 423.906 126.626 422.623 126.894C421.339 127.176 419.774 127.317 417.926 127.317ZM453.997 126.894H447.545V113.079C447.545 111.373 447.256 110.096 446.677 109.25C446.113 108.39 445.217 107.959 443.99 107.959C442.34 107.959 441.141 108.566 440.394 109.779C439.646 110.992 439.273 112.987 439.273 115.766V126.894H432.82V103.241H437.749L438.617 106.267H438.976C439.611 105.181 440.528 104.335 441.727 103.728C442.926 103.107 444.301 102.797 445.852 102.797C449.392 102.797 451.79 103.954 453.045 106.267H453.617C454.251 105.167 455.182 104.313 456.409 103.707C457.65 103.1 459.047 102.797 460.598 102.797C463.278 102.797 465.302 103.488 466.67 104.871C468.052 106.239 468.743 108.439 468.743 111.471V126.894H462.269V113.079C462.269 111.373 461.98 110.096 461.402 109.25C460.838 108.39 459.942 107.959 458.715 107.959C457.136 107.959 455.951 108.523 455.161 109.652C454.385 110.78 453.997 112.571 453.997 115.026V126.894ZM496.606 122.176C497.735 122.176 499.089 121.93 500.668 121.436V126.238C499.06 126.958 497.086 127.317 494.744 127.317C492.163 127.317 490.28 126.669 489.096 125.371C487.925 124.059 487.34 122.099 487.34 119.49V108.086H484.251V105.357L487.805 103.199L489.667 98.2063H493.792V103.241H500.414V108.086H493.792V119.49C493.792 120.406 494.046 121.083 494.554 121.521C495.076 121.958 495.76 122.176 496.606 122.176ZM527.304 126.894H520.851V113.079C520.851 109.666 519.582 107.959 517.043 107.959C515.238 107.959 513.933 108.573 513.129 109.8C512.325 111.027 511.923 113.016 511.923 115.766V126.894H505.471V93.975H511.923V100.682C511.923 101.203 511.874 102.43 511.775 104.363L511.627 106.267H511.966C513.404 103.954 515.689 102.797 518.82 102.797C521.599 102.797 523.707 103.545 525.146 105.04C526.585 106.535 527.304 108.679 527.304 111.471V126.894ZM543.742 107.388C542.374 107.388 541.302 107.825 540.527 108.7C539.751 109.56 539.307 110.787 539.194 112.381H548.249C548.221 110.787 547.804 109.56 547.001 108.7C546.197 107.825 545.111 107.388 543.742 107.388ZM544.652 127.317C540.844 127.317 537.868 126.267 535.724 124.165C533.58 122.064 532.508 119.088 532.508 115.237C532.508 111.274 533.496 108.213 535.47 106.055C537.459 103.883 540.202 102.797 543.7 102.797C547.043 102.797 549.645 103.749 551.507 105.653C553.369 107.557 554.299 110.188 554.299 113.545V116.676H539.046C539.116 118.509 539.659 119.941 540.675 120.97C541.69 122 543.115 122.515 544.948 122.515C546.373 122.515 547.72 122.367 548.989 122.071C550.259 121.774 551.584 121.302 552.967 120.653V125.646C551.838 126.21 550.632 126.626 549.349 126.894C548.065 127.176 546.5 127.317 544.652 127.317ZM559.271 97.1273C559.271 95.0258 560.442 93.975 562.783 93.975C565.124 93.975 566.295 95.0258 566.295 97.1273C566.295 98.1287 565.999 98.9115 565.407 99.4756C564.828 100.026 563.954 100.301 562.783 100.301C560.442 100.301 559.271 99.2429 559.271 97.1273ZM565.999 126.894H559.546V103.241H565.999V126.894ZM585.992 102.797C586.866 102.797 587.592 102.861 588.171 102.988L587.684 109.038C587.162 108.897 586.528 108.827 585.78 108.827C583.721 108.827 582.113 109.356 580.956 110.413C579.814 111.471 579.243 112.952 579.243 114.856V126.894H572.79V103.241H577.677L578.629 107.219H578.947C579.68 105.893 580.667 104.828 581.908 104.024C583.164 103.206 584.525 102.797 585.992 102.797Z" fill="white"/>
</g>
</g>
<defs>
<filter id="filter0_d_33_4" x="3.11206" y="46.9824" width="637.922" height="171.174" filterUnits="userSpaceOnUse" color-interpolation-filters="sRGB">
<feFlood flood-opacity="0" result="BackgroundImageFix"/>
<feColorMatrix in="SourceAlpha" type="matrix" values="0 0 0 0 0 0 0 0 0 0 0 0 0 0 0 0 0 0 127 0" result="hardAlpha"/>
<feOffset dy="4"/>
<feGaussianBlur stdDeviation="2"/>
<feComposite in2="hardAlpha" operator="out"/>
<feColorMatrix type="matrix" values="0 0 0 0 0 0 0 0 0 0 0 0 0 0 0 0 0 0 0.25 0"/>
<feBlend mode="normal" in2="BackgroundImageFix" result="effect1_dropShadow_33_4"/>
<feBlend mode="normal" in="SourceGraphic" in2="effect1_dropShadow_33_4" result="shape"/>
</filter>
<filter id="filter1_d_33_4" x="226.989" y="93.975" width="365.182" height="41.3424" filterUnits="userSpaceOnUse" color-interpolation-filters="sRGB">
<feFlood flood-opacity="0" result="BackgroundImageFix"/>
<feColorMatrix in="SourceAlpha" type="matrix" values="0 0 0 0 0 0 0 0 0 0 0 0 0 0 0 0 0 0 127 0" result="hardAlpha"/>
<feOffset dy="4"/>
<feGaussianBlur stdDeviation="2"/>
<feComposite in2="hardAlpha" operator="out"/>
<feColorMatrix type="matrix" values="0 0 0 0 0 0 0 0 0 0 0 0 0 0 0 0 0 0 0.25 0"/>
<feBlend mode="normal" in2="BackgroundImageFix" result="effect1_dropShadow_33_4"/>
<feBlend mode="normal" in="SourceGraphic" in2="effect1_dropShadow_33_4" result="shape"/>
</filter>
</defs>
</svg>
