<svg width="48" height="56" viewBox="0 0 48 56" fill="none" xmlns="http://www.w3.org/2000/svg">
<g id="logo">
<path id="outline" d="M23.7817 4C23.7817 4 -12.0806 36.7283 10.4155 50.2004C10.4155 50.2004 22.7592 58.1079 38.6087 49.4682C38.6087 49.4682 61.1778 39.657 23.7817 4Z" stroke="#333333" stroke-width="4.9128"/>
<path id="tear" d="M14.5057 45.4412C14.5057 45.4412 23.3435 51.3719 33.8611 44.9287C33.8611 44.9287 49.6376 38.8516 23.7087 13.6647C23.7087 13.6647 -2.1472 38.3391 14.5057 45.4412ZM23.4165 27.2832C23.4165 25.526 24.8773 24.0617 26.6302 24.0617C28.3832 24.0617 29.844 25.526 29.844 27.2832C29.844 29.0405 28.3832 30.5048 26.6302 30.5048C24.8773 30.5048 23.4165 29.0405 23.4165 27.2832Z" fill="#333333"/>
<ellipse id="clipPath" cx="24" cy="32.5" rx="21" ry="20.5" fill="#24FF00"/>
</g>
</svg>
